<svg width="655" height="594" viewBox="0 0 655 594" fill="none" xmlns="http://www.w3.org/2000/svg">
<ellipse opacity="0.7" cx="336.469" cy="209.886" rx="209" ry="209.5" transform="rotate(-90 336.469 209.886)" fill="url(#paint0_linear_857_716)"/>
<ellipse opacity="0.7" cx="209.969" cy="384.386" rx="209.5" ry="209" transform="rotate(-90 209.969 384.386)" fill="url(#paint1_linear_857_716)"/>
<ellipse opacity="0.7" cx="445.469" cy="384.386" rx="209.5" ry="209.5" transform="rotate(-90 445.469 384.386)" fill="url(#paint2_linear_857_716)"/>
<g clipPath="url(#clip0_857_716)">
<path d="M336.586 384.982C366.151 384.982 390.118 360.791 390.118 330.95C390.118 301.109 366.151 276.918 336.586 276.918C307.022 276.918 283.055 301.109 283.055 330.95C283.055 360.791 307.022 384.982 336.586 384.982Z" fill="white"/>
<path d="M314.044 319.83C319.41 319.83 324.776 319.862 330.142 319.83C335.127 319.798 337.032 316.529 334.778 312.042C332.65 307.812 330.523 303.614 328.428 299.352C325.983 294.416 327.348 289.257 331.634 287.077C336.238 284.738 341.001 286.501 343.573 291.564C353.86 311.722 364.147 331.848 374.403 352.006C376.974 357.069 375.831 361.78 371.545 363.991C366.973 366.363 361.861 364.536 359.289 359.569C356.241 353.736 353.161 347.904 350.209 342.007C348.399 338.353 345.636 336.559 341.572 336.719C338.969 336.815 336.365 336.751 333.762 336.719C330.11 336.655 327.57 338.353 325.887 341.59C322.617 347.968 319.347 354.345 315.949 360.69C314.171 363.991 310.615 365.434 306.678 364.728C303.408 364.152 300.741 361.716 300.392 358.319C300.201 356.492 300.55 354.409 301.281 352.711C302.836 349.153 304.773 345.788 306.583 342.327C308.583 338.514 307.567 336.719 303.376 336.719C301.281 336.719 299.185 336.719 297.09 336.687C292.009 336.591 288.485 333.322 288.453 328.707C288.422 323.964 292.168 319.862 296.931 319.766C302.614 319.734 308.329 319.83 314.044 319.83Z" fill="black" stroke="white" strokeWidth="1.13377" strokeMiterlimit="10"/>
</g>
<defs>
<linearGradient id="paint0_linear_857_716" x1="545.469" y1="81.5987" x2="126.925" y2="337.282" gradientUnits="userSpaceOnUse">
<stop stop-color="#199EAD" stop-opacity="0.05"/>
<stop offset="1" stop-color="#199EAD" stop-opacity="0.3"/>
</linearGradient>
<linearGradient id="paint1_linear_857_716" x1="419.469" y1="256.405" x2="1.01541" y2="513.257" gradientUnits="userSpaceOnUse">
<stop stop-color="#199EAD" stop-opacity="0.05"/>
<stop offset="1" stop-color="#199EAD" stop-opacity="0.3"/>
</linearGradient>
<linearGradient id="paint2_linear_857_716" x1="654.969" y1="565.24" x2="235.969" y2="203.531" gradientUnits="userSpaceOnUse">
<stop stop-color="#199EAD" stop-opacity="0.05"/>
<stop offset="1" stop-color="#199EAD" stop-opacity="0.3"/>
</linearGradient>
<clipPath id="clip0_857_716">
<rect width="107" height="108" fill="white" transform="translate(282.969 276.886)"/>
</clipPath>
</defs>
</svg>
